<svg xmlns="http://www.w3.org/2000/svg" viewBox="0 0 512 512" width="512" height="512">
  <defs>
    <linearGradient id="grad" x1="0%" y1="0%" x2="100%" y2="100%">
      <stop offset="0%" stop-color="#6366f1" />
      <stop offset="100%" stop-color="#f59e0b" />
    </linearGradient>
  </defs>
  <!-- Background Rounded Rect -->
  <rect width="512" height="512" rx="128" fill="url(#grad)" />
  <!-- Microphone & Headphone Glyphs inside -->
  <path d="M256 120c-75.1 0-136 60.9-136 136v40c0 13.3 10.7 24 24 24s24-10.7 24-24v-40c0-48.5 39.5-88 88-88s88 39.5 88 88v40c0 13.3 10.7 24 24 24s24-10.7 24-24v-40c0-75.1-60.9-136-136-136z" fill="#ffffff" />
  <rect x="110" y="240" width="48" height="96" rx="24" fill="#ffffff" />
  <rect x="354" y="240" width="48" height="96" rx="24" fill="#ffffff" />
  <!-- Writing Pencil Icon -->
  <path d="M220 320h72v40h-72zm96.7-56.7l-40-40c-6.2-6.2-16.4-6.2-22.6 0l-120 120c-3.1 3.1-5.1 7.2-5.7 11.6l-10 70c-.9 6.5 4.8 12.2 11.3 11.3l70-10c4.4-.6 8.5-2.6 11.6-5.7l120-120c6.2-6.2 6.2-16.4 0-22.6z" fill="#ffffff" opacity="0.9" />
</svg>
