<?xml version="1.0" encoding="UTF-8"?>
<svg xmlns="http://www.w3.org/2000/svg" viewBox="0 0 120 120" role="img" aria-label="bat">
  <defs>
    <linearGradient id="bg-bat" x1="0%" y1="0%" x2="100%" y2="100%">
      <stop offset="0%" stop-color="#CFD8DC"/>
      <stop offset="100%" stop-color="#ffffff" stop-opacity="0.4"/>
    </linearGradient>
  </defs>
  <rect width="120" height="120" rx="28" fill="url(#bg-bat)" stroke="rgba(0,0,0,0.1)" stroke-width="2"/>
  <circle cx="60" cy="60" r="48" fill="rgba(255,255,255,0.35)"/>
  <ellipse cx="60" cy="62" rx="12" ry="15" fill="#4A148C"/><path d="M48 58 Q28 44 22 62 Q34 60 40 70 Q44 60 48 64 Z" fill="#4A148C"/><path d="M72 58 Q92 44 98 62 Q86 60 80 70 Q76 60 72 64 Z" fill="#4A148C"/><polygon points="52,50 50,40 57,48" fill="#4A148C"/><polygon points="68,50 70,40 63,48" fill="#4A148C"/><circle cx="55" cy="60" r="2.5" fill="#FFD93D"/><circle cx="65" cy="60" r="2.5" fill="#FFD93D"/>
</svg>